<?xml version="1.0" encoding="utf-8"?>
<svg version="1.1" xmlns:xlink="http://www.w3.org/1999/xlink" width="12px" height="14px" xmlns="http://www.w3.org/2000/svg">
  <g transform="matrix(1 0 0 1 -1597 -175 )">
    <path d="M 8.12109375 6.31640625  C 8.70703125 5.86067708333333  9 5.31076388888889  9 4.66666666666667  C 9 4.02256944444444  8.70703125 3.47265625  8.12109375 3.01692708333333  C 7.53515625 2.56119791666667  6.828125 2.33333333333333  6 2.33333333333333  C 5.171875 2.33333333333333  4.46484375 2.56119791666667  3.87890625 3.01692708333333  C 3.29296875 3.47265625  3 4.02256944444444  3 4.66666666666667  C 3 5.31076388888889  3.29296875 5.86067708333333  3.87890625 6.31640625  C 4.46484375 6.77213541666667  5.171875 7  6 7  C 6.828125 7  7.53515625 6.77213541666667  8.12109375 6.31640625  Z M 10.2421875 1.3671875  C 11.4140625 2.27864583333333  12 3.37847222222222  12 4.66666666666667  C 12 5.32899305555555  11.87109375 5.87282986111111  11.61328125 6.29817708333333  L 7.34765625 13.3528645833333  C 7.22265625 13.5533854166667  7.037109375 13.7113715277778  6.791015625 13.8268229166667  C 6.544921875 13.9422743055556  6.28125 14  6 14  C 5.71875 14  5.455078125 13.9422743055556  5.208984375 13.8268229166667  C 4.962890625 13.7113715277778  4.78125 13.5533854166667  4.6640625 13.3528645833333  L 0.38671875 6.29817708333333  C 0.12890625 5.87282986111111  0 5.32899305555555  0 4.66666666666667  C 0 3.37847222222222  0.5859375 2.27864583333333  1.7578125 1.3671875  C 2.9296875 0.455729166666667  4.34375 0  6 0  C 7.65625 0  9.0703125 0.455729166666667  10.2421875 1.3671875  Z " fill-rule="nonzero" fill="#aaaaaa" stroke="none" transform="matrix(1 0 0 1 1597 175 )" />
  </g>
</svg>