<?xml version="1.0" encoding="utf-8"?>
<svg version="1.1" xmlns:xlink="http://www.w3.org/1999/xlink" width="12px" height="67px" preserveAspectRatio="xMidYMin meet" viewBox="1521 108  10 67" xmlns="http://www.w3.org/2000/svg">
  <path d="M 1470 114.5  L 1521 114.5  A 5 5 0 0 1 1526.5 119.5 L 1526.5 164  A 5 5 0 0 0 1531.5 169.5 L 1591 169.5  " stroke-width="3" stroke="#70b603" fill="none" />
  <path d="M 1471 110.5  A 4 4 0 0 0 1467 114.5 A 4 4 0 0 0 1471 118.5 A 4 4 0 0 0 1475 114.5 A 4 4 0 0 0 1471 110.5 Z M 1581.9 179.5  L 1594 169.5  L 1581.9 159.5  L 1586.8 169.5  L 1581.9 179.5  Z " fill-rule="nonzero" fill="#70b603" stroke="none" />
</svg>