<?xml version="1.0" encoding="utf-8"?>
<svg version="1.1" xmlns:xlink="http://www.w3.org/1999/xlink" width="13px" height="12px" xmlns="http://www.w3.org/2000/svg">
  <g transform="matrix(1 0 0 1 -1444 -107 )">
    <path d="M 12.0774739583333 4.3515625  L 10.8587239583333 3.2265625  L 7.85416666666667 6  L 10.8587239583333 8.7734375  L 12.0774739583333 7.6484375  C 12.2411024305556 7.48697916666667  12.4385850694444 7.45052083333333  12.669921875 7.5390625  C 12.8899739583333 7.62760416666667  13 7.78125  13 8  L 13 11.5  C 13 11.6354166666667  12.9463975694444 11.7526041666667  12.8391927083333 11.8515625  C 12.7319878472222 11.9505208333333  12.6050347222222 12  12.4583333333333 12  L 8.66666666666667 12  C 8.4296875 12  8.26323784722222 11.8958333333333  8.16731770833333 11.6875  C 8.07139756944444 11.484375  8.11089409722222 11.3046875  8.28580729166667 11.1484375  L 9.50455729166667 10.0234375  L 6.5 7.25  L 3.49544270833333 10.0234375  L 4.71419270833333 11.1484375  C 4.88910590277778 11.3046875  4.92860243055556 11.484375  4.83268229166667 11.6875  C 4.73676215277778 11.8958333333333  4.5703125 12  4.33333333333333 12  L 0.541666666666667 12  C 0.394965277777778 12  0.268012152777778 11.9505208333333  0.160807291666667 11.8515625  C 0.0536024305555556 11.7526041666667  0 11.6354166666667  0 11.5  L 0 8  C 0 7.78125  0.112847222222222 7.62760416666667  0.338541666666667 7.5390625  C 0.55859375 7.45052083333333  0.753255208333333 7.48697916666667  0.922526041666667 7.6484375  L 2.14127604166667 8.7734375  L 5.14583333333333 6  L 2.14127604166667 3.2265625  L 0.922526041666667 4.3515625  C 0.815321180555556 4.45052083333333  0.688368055555556 4.5  0.541666666666667 4.5  C 0.473958333333333 4.5  0.40625 4.48697916666667  0.338541666666667 4.4609375  C 0.112847222222222 4.37239583333333  0 4.21875  0 4  L 0 0.5  C 0 0.364583333333332  0.0536024305555556 0.247395833333332  0.160807291666667 0.1484375  C 0.268012152777778 0.0494791666666661  0.394965277777778 0  0.541666666666667 0  L 4.33333333333333 0  C 4.5703125 0  4.73676215277778 0.104166666666666  4.83268229166667 0.3125  C 4.92860243055556 0.515625  4.88910590277778 0.6953125  4.71419270833333 0.8515625  L 3.49544270833333 1.9765625  L 6.5 4.75  L 9.50455729166667 1.9765625  L 8.28580729166667 0.8515625  C 8.11089409722222 0.6953125  8.07139756944444 0.515625  8.16731770833333 0.3125  C 8.26323784722222 0.104166666666666  8.4296875 0  8.66666666666667 0  L 12.4583333333333 0  C 12.6050347222222 0  12.7319878472222 0.0494791666666661  12.8391927083333 0.1484375  C 12.9463975694444 0.247395833333332  13 0.364583333333332  13 0.5  L 13 4  C 13 4.21875  12.8899739583333 4.37239583333333  12.669921875 4.4609375  C 12.5965711805556 4.48697916666667  12.5260416666667 4.5  12.4583333333333 4.5  C 12.3116319444444 4.5  12.1846788194444 4.45052083333333  12.0774739583333 4.3515625  Z " fill-rule="nonzero" fill="#ffff80" stroke="none" transform="matrix(1 0 0 1 1444 107 )" />
  </g>
</svg>