<?xml version="1.0" encoding="utf-8"?>
<svg version="1.1" xmlns:xlink="http://www.w3.org/1999/xlink" width="729px" height="239px" xmlns="http://www.w3.org/2000/svg">
  <defs>
    <mask fill="white" id="clip50">
      <path d="M 0 239  L 0 0  L 143.764705882353 0  L 729 0  L 729 239  L 498.095022624435 239  L 0 239  Z " fill-rule="evenodd" />
    </mask>
  </defs>
  <g transform="matrix(1 0 0 1 -4679 -3006 )">
    <path d="M 0 239  L 0 0  L 143.764705882353 0  L 729 0  L 729 239  L 498.095022624435 239  L 0 239  Z " fill-rule="nonzero" fill="#f2f2f2" stroke="none" transform="matrix(1 0 0 1 4679 3006 )" />
    <path d="M 0 239  L 0 0  L 143.764705882353 0  L 729 0  L 729 239  L 498.095022624435 239  L 0 239  Z " stroke-width="2" stroke="#f2f2f2" fill="none" transform="matrix(1 0 0 1 4679 3006 )" mask="url(#clip50)" />
  </g>
</svg>