<?xml version="1.0" encoding="utf-8"?>
<svg version="1.1" xmlns:xlink="http://www.w3.org/1999/xlink" width="729px" height="221px" xmlns="http://www.w3.org/2000/svg">
  <defs>
    <mask fill="white" id="clip12">
      <path d="M 0 221  L 0 0  L 143.764705882353 0  L 729 0  L 729 221  L 498.095022624435 221  L 0 221  Z " fill-rule="evenodd" />
    </mask>
  </defs>
  <g transform="matrix(1 0 0 1 -4721 -2362 )">
    <path d="M 0 221  L 0 0  L 143.764705882353 0  L 729 0  L 729 221  L 498.095022624435 221  L 0 221  Z " fill-rule="nonzero" fill="#f2f2f2" stroke="none" transform="matrix(1 0 0 1 4721 2362 )" />
    <path d="M 0 221  L 0 0  L 143.764705882353 0  L 729 0  L 729 221  L 498.095022624435 221  L 0 221  Z " stroke-width="2" stroke="#f2f2f2" fill="none" transform="matrix(1 0 0 1 4721 2362 )" mask="url(#clip12)" />
  </g>
</svg>