<?xml version="1.0" encoding="utf-8"?>
<svg version="1.1" xmlns:xlink="http://www.w3.org/1999/xlink" width="222px" height="199px" xmlns="http://www.w3.org/2000/svg">
  <g transform="matrix(1 0 0 1 -1999 -728 )">
    <path d="M 2110 732  C 2169.92 732  2217 774.02  2217 827.5  C 2217 880.98  2169.92 923  2110 923  C 2050.08 923  2003 880.98  2003 827.5  C 2003 774.02  2050.08 732  2110 732  Z " fill-rule="nonzero" fill="#ffffff" stroke="none" fill-opacity="0" />
    <path d="M 2110 730.5  C 2170.76 730.5  2218.5 773.18  2218.5 827.5  C 2218.5 881.82  2170.76 924.5  2110 924.5  C 2049.24 924.5  2001.5 881.82  2001.5 827.5  C 2001.5 773.18  2049.24 730.5  2110 730.5  Z " stroke-width="5" stroke="#d9001b" fill="none" />
  </g>
</svg>