<?xml version="1.0" encoding="utf-8"?>
<svg version="1.1" xmlns:xlink="http://www.w3.org/1999/xlink" width="18px" height="18px" xmlns="http://www.w3.org/2000/svg">
  <g transform="matrix(1 0 0 1 -1515 -197 )">
    <path d="M 16.72265625 6.52734375  L 15.03515625 4.83984375  L 10.875 9  L 15.03515625 13.16015625  L 16.72265625 11.47265625  C 16.94921875 11.23046875  17.22265625 11.17578125  17.54296875 11.30859375  C 17.84765625 11.44140625  18 11.671875  18 12  L 18 17.25  C 18 17.453125  17.92578125 17.62890625  17.77734375 17.77734375  C 17.62890625 17.92578125  17.453125 18  17.25 18  L 12 18  C 11.671875 18  11.44140625 17.84375  11.30859375 17.53125  C 11.17578125 17.2265625  11.23046875 16.95703125  11.47265625 16.72265625  L 13.16015625 15.03515625  L 9 10.875  L 4.83984375 15.03515625  L 6.52734375 16.72265625  C 6.76953125 16.95703125  6.82421875 17.2265625  6.69140625 17.53125  C 6.55859375 17.84375  6.328125 18  6 18  L 0.75 18  C 0.546875 18  0.37109375 17.92578125  0.22265625 17.77734375  C 0.07421875 17.62890625  0 17.453125  0 17.25  L 0 12  C 0 11.671875  0.15625 11.44140625  0.46875 11.30859375  C 0.7734375 11.17578125  1.04296875 11.23046875  1.27734375 11.47265625  L 2.96484375 13.16015625  L 7.125 9  L 2.96484375 4.83984375  L 1.27734375 6.52734375  C 1.12890625 6.67578125  0.953125 6.75  0.75 6.75  C 0.65625 6.75  0.5625 6.73046875  0.46875 6.69140625  C 0.15625 6.55859375  0 6.328125  0 6  L 0 0.749999999999999  C 0 0.546874999999998  0.07421875 0.371093749999998  0.22265625 0.222656249999999  C 0.37109375 0.0742187499999991  0.546875 0  0.75 0  L 6 0  C 6.328125 0  6.55859375 0.156249999999998  6.69140625 0.468749999999999  C 6.82421875 0.7734375  6.76953125 1.04296875  6.52734375 1.27734375  L 4.83984375 2.96484375  L 9 7.125  L 13.16015625 2.96484375  L 11.47265625 1.27734375  C 11.23046875 1.04296875  11.17578125 0.7734375  11.30859375 0.468749999999999  C 11.44140625 0.156249999999998  11.671875 0  12 0  L 17.25 0  C 17.453125 0  17.62890625 0.0742187499999991  17.77734375 0.222656249999999  C 17.92578125 0.371093749999998  18 0.546874999999998  18 0.749999999999999  L 18 6  C 18 6.328125  17.84765625 6.55859375  17.54296875 6.69140625  C 17.44140625 6.73046875  17.34375 6.75  17.25 6.75  C 17.046875 6.75  16.87109375 6.67578125  16.72265625 6.52734375  Z " fill-rule="nonzero" fill="#7f7f7f" stroke="none" transform="matrix(1 0 0 1 1515 197 )" />
  </g>
</svg>