<?xml version="1.0" encoding="utf-8"?>
<svg version="1.1" xmlns:xlink="http://www.w3.org/1999/xlink" width="30px" height="30px" xmlns="http://www.w3.org/2000/svg">
  <g transform="matrix(1 0 0 1 -78 -113 )">
    <path d="M 26.2713068181818 3.72869318181818  C 25.6036931818182 3.06107954545454  24.8011363636364 2.72727272727273  23.8636363636364 3  L 6.13636363636364 3  C 5.19886363636364 2.72727272727273  4.39630681818182 3.06107954545454  3.72869318181818 3.72869318181818  C 3.06107954545455 4.39630681818182  2.72727272727273 5.19886363636364  3 6.13636363636364  L 3 23.8636363636364  C 2.72727272727273 24.8011363636364  3.06107954545455 25.6036931818182  3.72869318181818 26.2713068181818  C 4.39630681818182 26.9389204545455  5.19886363636364 27.2727272727273  6.13636363636364 27  L 23.8636363636364 27  C 24.8011363636364 27.2727272727273  25.6036931818182 26.9389204545455  26.2713068181818 26.2713068181818  C 26.9389204545455 25.6036931818182  27.2727272727273 24.8011363636364  27 23.8636363636364  L 27 6.13636363636364  C 27.2727272727273 5.19886363636364  26.9389204545455 4.39630681818182  26.2713068181818 3.72869318181818  Z M 28.1995738636364 1.80042613636364  C 29.3998579545455 3.00071022727273  30 4.44602272727272  30 6.13636363636364  L 30 23.8636363636364  C 30 25.5539772727273  29.3998579545455 26.9992897727273  28.1995738636364 28.1995738636364  C 26.9992897727273 29.3998579545455  25.5539772727273 30  23.8636363636364 30  L 6.13636363636364 30  C 4.44602272727273 30  3.00071022727273 29.3998579545455  1.80042613636364 28.1995738636364  C 0.600142045454545 26.9992897727273  0 25.5539772727273  0 23.8636363636364  L 0 6.13636363636364  C 0 4.44602272727272  0.600142045454545 3.00071022727273  1.80042613636364 1.80042613636364  C 3.00071022727273 0.600142045454543  4.44602272727273 0  6.13636363636364 0  L 23.8636363636364 0  C 25.5539772727273 0  26.9992897727273 0.600142045454543  28.1995738636364 1.80042613636364  Z " fill-rule="nonzero" fill="#000000" stroke="none" transform="matrix(1 0 0 1 78 113 )" />
  </g>
</svg>