<?xml version="1.0" encoding="utf-8"?>
<svg version="1.1" xmlns:xlink="http://www.w3.org/1999/xlink" width="25px" height="25px" xmlns="http://www.w3.org/2000/svg">
  <g transform="matrix(1 0 0 1 -44 -107 )">
    <path d="M 23.2259114583333 9.06575520833333  L 20.8821614583333 6.72200520833333  L 15.1041666666667 12.5  L 20.8821614583333 18.2779947916667  L 23.2259114583333 15.9342447916667  C 23.5405815972222 15.5978732638889  23.9203559027778 15.5219184027778  24.365234375 15.7063802083333  C 24.7884114583333 15.8908420138889  25 16.2109375  25 16.6666666666667  L 25 23.9583333333333  C 25 24.2404513888889  24.8969184027778 24.4845920138889  24.6907552083333 24.6907552083333  C 24.4845920138889 24.8969184027778  24.2404513888889 25  23.9583333333333 25  L 16.6666666666667 25  C 16.2109375 25  15.8908420138889 24.7829861111111  15.7063802083333 24.3489583333333  C 15.5219184027778 23.92578125  15.5978732638889 23.5514322916667  15.9342447916667 23.2259114583333  L 18.2779947916667 20.8821614583333  L 12.5 15.1041666666667  L 6.72200520833333 20.8821614583333  L 9.06575520833333 23.2259114583333  C 9.40212673611111 23.5514322916667  9.47808159722222 23.92578125  9.29361979166667 24.3489583333333  C 9.10915798611111 24.7829861111111  8.7890625 25  8.33333333333333 25  L 1.04166666666667 25  C 0.759548611111111 25  0.515407986111111 24.8969184027778  0.309244791666667 24.6907552083333  C 0.103081597222222 24.4845920138889  0 24.2404513888889  0 23.9583333333333  L 0 16.6666666666667  C 0 16.2109375  0.217013888888889 15.8908420138889  0.651041666666667 15.7063802083333  C 1.07421875 15.5219184027778  1.44856770833333 15.5978732638889  1.77408854166667 15.9342447916667  L 4.11783854166667 18.2779947916667  L 9.89583333333333 12.5  L 4.11783854166667 6.72200520833333  L 1.77408854166667 9.06575520833333  C 1.56792534722222 9.27191840277778  1.32378472222222 9.375  1.04166666666667 9.375  C 0.911458333333333 9.375  0.78125 9.34787326388889  0.651041666666667 9.29361979166667  C 0.217013888888889 9.10915798611111  0 8.7890625  0 8.33333333333333  L 0 1.04166666666667  C 0 0.759548611111108  0.103081597222222 0.515407986111108  0.309244791666667 0.309244791666666  C 0.515407986111111 0.103081597222221  0.759548611111111 0  1.04166666666667 0  L 8.33333333333333 0  C 8.7890625 0  9.10915798611111 0.217013888888887  9.29361979166667 0.651041666666666  C 9.47808159722222 1.07421875  9.40212673611111 1.44856770833333  9.06575520833333 1.77408854166667  L 6.72200520833333 4.11783854166667  L 12.5 9.89583333333333  L 18.2779947916667 4.11783854166667  L 15.9342447916667 1.77408854166667  C 15.5978732638889 1.44856770833333  15.5219184027778 1.07421875  15.7063802083333 0.651041666666666  C 15.8908420138889 0.217013888888887  16.2109375 0  16.6666666666667 0  L 23.9583333333333 0  C 24.2404513888889 0  24.4845920138889 0.103081597222221  24.6907552083333 0.309244791666666  C 24.8969184027778 0.515407986111108  25 0.759548611111108  25 1.04166666666667  L 25 8.33333333333333  C 25 8.7890625  24.7884114583333 9.10915798611111  24.365234375 9.29361979166667  C 24.2241753472222 9.34787326388889  24.0885416666667 9.375  23.9583333333333 9.375  C 23.6762152777778 9.375  23.4320746527778 9.27191840277778  23.2259114583333 9.06575520833333  Z " fill-rule="nonzero" fill="#000000" stroke="none" transform="matrix(1 0 0 1 44 107 )" />
  </g>
</svg>