<?xml version="1.0" encoding="utf-8"?>
<svg version="1.1" xmlns:xlink="http://www.w3.org/1999/xlink" width="30px" height="30px" xmlns="http://www.w3.org/2000/svg">
  <g transform="matrix(1 0 0 1 -42 -199 )">
    <path d="M 6.3427734375 20.11875  C 6.8017578125 19.53125  7.03125 18.825  7.03125 18  C 7.03125 17.175  6.8017578125 16.46875  6.3427734375 15.88125  C 5.8837890625 15.29375  5.33203125 15  4.6875 15  C 4.04296875 15  3.4912109375 15.29375  3.0322265625 15.88125  C 2.5732421875 16.46875  2.34375 17.175  2.34375 18  C 2.34375 18.825  2.5732421875 19.53125  3.0322265625 20.11875  C 3.4912109375 20.70625  4.04296875 21  4.6875 21  C 5.33203125 21  5.8837890625 20.70625  6.3427734375 20.11875  Z M 8.8623046875 5.30625  L 7.55859375 12  L 22.44140625 12  L 21.1376953125 5.30625  C 21.1181640625 5.20625  21.0498046875 5.096875  20.9326171875 4.978125  C 20.8154296875 4.859375  20.712890625 4.8  20.625 5  L 9.375 5  C 9.287109375 4.8  9.1845703125 4.859375  9.0673828125 4.978125  C 8.9501953125 5.096875  8.8818359375 5.20625  8.8623046875 5.30625  Z M 26.9677734375 20.11875  C 27.4267578125 19.53125  27.65625 18.825  27.65625 18  C 27.65625 17.175  27.4267578125 16.46875  26.9677734375 15.88125  C 26.5087890625 15.29375  25.95703125 15  25.3125 15  C 24.66796875 15  24.1162109375 15.29375  23.6572265625 15.88125  C 23.1982421875 16.46875  22.96875 17.175  22.96875 18  C 22.96875 18.825  23.1982421875 19.53125  23.6572265625 20.11875  C 24.1162109375 20.70625  24.66796875 21  25.3125 21  C 25.95703125 21  26.5087890625 20.70625  26.9677734375 20.11875  Z M 29.04052734375 13.228125  C 29.68017578125 14.046875  30 15.0375  30 16.2  L 30 23.4  C 30 23.575  29.9560546875 23.71875  29.8681640625 23.83125  C 29.7802734375 23.94375  29.66796875 24  29.53125 24  L 28.125 24  L 28.125 26.4  C 28.125 27.4  27.8515625 28.25  27.3046875 28.95  C 26.7578125 29.65  26.09375 30  25.3125 30  C 24.53125 30  23.8671875 29.65  23.3203125 28.95  C 22.7734375 28.25  22.5 27.4  22.5 26.4  L 22.5 24  L 7.5 24  L 7.5 26.4  C 7.5 27.4  7.2265625 28.25  6.6796875 28.95  C 6.1328125 29.65  5.46875 30  4.6875 30  C 3.90625 30  3.2421875 29.65  2.6953125 28.95  C 2.1484375 28.25  1.875 27.4  1.875 26.4  L 1.875 24  L 0.46875 24  C 0.33203125 24  0.2197265625 23.94375  0.1318359375 23.83125  C 0.0439453125 23.71875  0 23.575  0 23.4  L 0 16.2  C 0 15.0375  0.31982421875 14.046875  0.95947265625 13.228125  C 1.59912109375 12.409375  2.373046875 12  3.28125 12  L 3.69140625 12  L 5.2294921875 4.14375  C 5.4541015625 2.96875  5.9619140625 1.984375  6.7529296875 1.190625  C 7.5439453125 0.396874999999999  8.41796875 0  9.375 0  L 20.625 0  C 21.58203125 0  22.4560546875 0.396874999999999  23.2470703125 1.190625  C 24.0380859375 1.984375  24.5458984375 2.96875  24.7705078125 4.14375  L 26.30859375 12  L 26.71875 12  C 27.626953125 12  28.40087890625 12.409375  29.04052734375 13.228125  Z " fill-rule="nonzero" fill="#000000" stroke="none" transform="matrix(1 0 0 1 42 199 )" />
  </g>
</svg>