<?xml version="1.0" encoding="utf-8"?>
<svg version="1.1" xmlns:xlink="http://www.w3.org/1999/xlink" width="31px" height="28px" xmlns="http://www.w3.org/2000/svg">
  <defs>
    <filter x="1290px" y="1387px" width="31px" height="28px" filterUnits="userSpaceOnUse" id="filter28">
      <feOffset dx="1" dy="0" in="SourceAlpha" result="shadowOffsetInner" />
      <feGaussianBlur stdDeviation="1" in="shadowOffsetInner" result="shadowGaussian" />
      <feComposite in2="shadowGaussian" operator="atop" in="SourceAlpha" result="shadowComposite" />
      <feColorMatrix type="matrix" values="0 0 0 0 0.788235294117647  0 0 0 0 0.788235294117647  0 0 0 0 0.788235294117647  0 0 0 0.349019607843137 0  " in="shadowComposite" />
    </filter>
    <g id="widget29">
      <path d="M 1304.5 1389  C 1312.06 1389  1318 1394.28  1318 1401  C 1318 1407.72  1312.06 1413  1304.5 1413  C 1296.94 1413  1291 1407.72  1291 1401  C 1291 1394.28  1296.94 1389  1304.5 1389  Z " fill-rule="nonzero" fill="#ffffff" stroke="none" />
      <path d="M 1304.5 1389.5  C 1311.78 1389.5  1317.5 1394.56  1317.5 1401  C 1317.5 1407.44  1311.78 1412.5  1304.5 1412.5  C 1297.22 1412.5  1291.5 1407.44  1291.5 1401  C 1291.5 1394.56  1297.22 1389.5  1304.5 1389.5  Z " stroke-width="1" stroke="#c9c9c9" fill="none" />
    </g>
  </defs>
  <g transform="matrix(1 0 0 1 -1290 -1387 )">
    <use xlink:href="#widget29" filter="url(#filter28)" />
    <use xlink:href="#widget29" />
  </g>
</svg>