<?xml version="1.0" encoding="utf-8"?>
<svg version="1.1" xmlns:xlink="http://www.w3.org/1999/xlink" width="12px" height="163px" preserveAspectRatio="xMidYMin meet" viewBox="1437 227  10 163" xmlns="http://www.w3.org/2000/svg">
  <path d="M 1442.5 230  L 1442.5 285  A 3 3 0 0 1 1445.5 288 A 3 3 0 0 1 1442.5 291 L 1442.5 379  A 5 5 0 0 0 1447.5 384.5 L 2208 384.5  " stroke-width="3" stroke-dasharray="9,3" stroke="#70b603" fill="none" />
  <path d="M 1442.5 227  A 4 4 0 0 0 1438.5 231 A 4 4 0 0 0 1442.5 235 A 4 4 0 0 0 1446.5 231 A 4 4 0 0 0 1442.5 227 Z M 2198.9 394.5  L 2211 384.5  L 2198.9 374.5  L 2203.8 384.5  L 2198.9 394.5  Z " fill-rule="nonzero" fill="#70b603" stroke="none" />
</svg>