<?xml version="1.0" encoding="utf-8"?>
<svg version="1.1" xmlns:xlink="http://www.w3.org/1999/xlink" width="12px" height="472px" preserveAspectRatio="xMidYMin meet" viewBox="2024 200  10 472" xmlns="http://www.w3.org/2000/svg">
  <path d="M 1774 206.5  L 2024 206.5  A 5 5 0 0 1 2029.5 211 L 2029.5 285  A 3 3 0 0 1 2032.5 288 A 3 3 0 0 1 2029.5 291 L 2029.5 381  A 3 3 0 0 1 2032.5 384 A 3 3 0 0 1 2029.5 387 L 2029.5 496  A 3 3 0 0 1 2032.5 499 A 3 3 0 0 1 2029.5 502 L 2029.5 661  A 5 5 0 0 0 2034.5 666.5 L 2213 666.5  " stroke-width="3" stroke="#70b603" fill="none" />
  <path d="M 1775 202.5  A 4 4 0 0 0 1771 206.5 A 4 4 0 0 0 1775 210.5 A 4 4 0 0 0 1779 206.5 A 4 4 0 0 0 1775 202.5 Z M 2203.9 676.5  L 2216 666.5  L 2203.9 656.5  L 2208.8 666.5  L 2203.9 676.5  Z " fill-rule="nonzero" fill="#70b603" stroke="none" />
</svg>