<?xml version="1.0" encoding="utf-8"?>
<svg version="1.1" xmlns:xlink="http://www.w3.org/1999/xlink" width="12px" height="228px" preserveAspectRatio="xMidYMin meet" viewBox="2026 444  10 228" xmlns="http://www.w3.org/2000/svg">
  <path d="M 1782 450.5  L 2026 450.5  A 5 5 0 0 1 2031.5 455 L 2031.5 496  A 3 3 0 0 1 2034.5 499 A 3 3 0 0 1 2031.5 502 L 2031.5 661  A 5 5 0 0 0 2036.5 666.5 L 2213 666.5  " stroke-width="3" stroke="#70b603" fill="none" />
  <path d="M 1783 446.5  A 4 4 0 0 0 1779 450.5 A 4 4 0 0 0 1783 454.5 A 4 4 0 0 0 1787 450.5 A 4 4 0 0 0 1783 446.5 Z M 2203.9 676.5  L 2216 666.5  L 2203.9 656.5  L 2208.8 666.5  L 2203.9 676.5  Z " fill-rule="nonzero" fill="#70b603" stroke="none" />
</svg>