<?xml version="1.0" encoding="utf-8"?>
<svg version="1.1" xmlns:xlink="http://www.w3.org/1999/xlink" width="12px" height="216px" preserveAspectRatio="xMidYMin meet" viewBox="2030 685  10 216" xmlns="http://www.w3.org/2000/svg">
  <path d="M 1782 691.5  L 2030 691.5  A 5 5 0 0 1 2035.5 696.5 L 2035.5 890  A 5 5 0 0 0 2040.5 895.5 L 2213 895.5  " stroke-width="3" stroke="#70b603" fill="none" />
  <path d="M 1783 687.5  A 4 4 0 0 0 1779 691.5 A 4 4 0 0 0 1783 695.5 A 4 4 0 0 0 1787 691.5 A 4 4 0 0 0 1783 687.5 Z M 2203.9 905.5  L 2216 895.5  L 2203.9 885.5  L 2208.8 895.5  L 2203.9 905.5  Z " fill-rule="nonzero" fill="#70b603" stroke="none" />
</svg>