<?xml version="1.0" encoding="utf-8"?>
<svg version="1.1" xmlns:xlink="http://www.w3.org/1999/xlink" width="262px" height="12px" preserveAspectRatio="xMinYMid meet" viewBox="1779 927  262 10" xmlns="http://www.w3.org/2000/svg">
  <path d="M 1782 932.5  L 2030 932.5  A 5 5 0 0 0 2035.5 927.5 L 2035.5 900  A 5 5 0 0 1 2040.5 895.5 L 2213 895.5  " stroke-width="3" stroke="#70b603" fill="none" />
  <path d="M 1783 928.5  A 4 4 0 0 0 1779 932.5 A 4 4 0 0 0 1783 936.5 A 4 4 0 0 0 1787 932.5 A 4 4 0 0 0 1783 928.5 Z M 2203.9 905.5  L 2216 895.5  L 2203.9 885.5  L 2208.8 895.5  L 2203.9 905.5  Z " fill-rule="nonzero" fill="#70b603" stroke="none" />
</svg>