<?xml version="1.0" encoding="utf-8"?>
<svg version="1.1" xmlns:xlink="http://www.w3.org/1999/xlink" width="22px" height="22px" preserveAspectRatio="xMinYMid meet" viewBox="978 868  22 20" xmlns="http://www.w3.org/2000/svg">
  <path d="M 988 878.5  L 1236 878.5  A 5 5 0 0 1 1241.5 883.5 L 1241.5 1580  A 5 5 0 0 0 1246.5 1585.5 L 1720 1585.5  " stroke-width="3" stroke="#70b603" fill="none" />
  <path d="M 989 874.5  A 4 4 0 0 0 985 878.5 A 4 4 0 0 0 989 882.5 A 4 4 0 0 0 993 878.5 A 4 4 0 0 0 989 874.5 Z M 1710.9 1595.5  L 1723 1585.5  L 1710.9 1575.5  L 1715.8 1585.5  L 1710.9 1595.5  Z " fill-rule="nonzero" fill="#70b603" stroke="none" />
</svg>