<?xml version="1.0" encoding="utf-8"?>
<svg version="1.1" xmlns:xlink="http://www.w3.org/1999/xlink" width="273px" height="12px" preserveAspectRatio="xMinYMid meet" viewBox="984 1766  273 10" xmlns="http://www.w3.org/2000/svg">
  <path d="M 987 1771.5  L 1246 1771.5  A 5 5 0 0 0 1251.5 1766.5 L 1251.5 1590  A 5 5 0 0 1 1256.5 1585.5 L 1720 1585.5  " stroke-width="3" stroke="#70b603" fill="none" />
  <path d="M 988 1767.5  A 4 4 0 0 0 984 1771.5 A 4 4 0 0 0 988 1775.5 A 4 4 0 0 0 992 1771.5 A 4 4 0 0 0 988 1767.5 Z M 1710.9 1595.5  L 1723 1585.5  L 1710.9 1575.5  L 1715.8 1585.5  L 1710.9 1595.5  Z " fill-rule="nonzero" fill="#70b603" stroke="none" />
</svg>